<?xml version="1.0" encoding="UTF-8"?>
<svg version="1.1" xmlns="http://www.w3.org/2000/svg" width="512" height="512">
<path d="M0 0 C5.44533742 1.44813795 9.326667 4.04917744 13.8125 7.3125 C14.55169678 7.84302979 15.29089355 8.37355957 16.05249023 8.92016602 C24.16439908 14.77766988 32.12751345 20.82532348 40 27 C40.72735352 27.56960449 41.45470703 28.13920898 42.20410156 28.72607422 C44.37316551 30.43266651 46.53213047 32.15115544 48.6875 33.875 C49.33468994 34.38603271 49.98187988 34.89706543 50.64868164 35.42358398 C51.26348389 35.92059814 51.87828613 36.4176123 52.51171875 36.9296875 C53.04240967 37.35491699 53.57310059 37.78014648 54.11987305 38.21826172 C54.74031494 38.80623535 55.36075684 39.39420898 56 40 C56.50475861 40.42713287 57.00951721 40.85426575 57.52957153 41.29434204 C61.29713875 44.92260495 62.42041045 47.71740424 62.71289062 52.94775391 C62.72539647 55.2907328 62.70465627 57.63405032 62.65625 59.9765625 C62.65250366 61.21997406 62.64875732 62.46338562 62.64489746 63.74447632 C62.62806178 67.03448424 62.58421912 70.32271244 62.52856445 73.61224365 C62.48112531 76.95497969 62.47857769 80.29757197 62.46875 83.640625 C62.4504116 86.19012333 62.42966057 88.7396057 62.40625 91.2890625 C62.39350037 93.08762192 62.39350037 93.08762192 62.38049316 94.92251587 C62.36127808 96.04072723 62.34206299 97.1589386 62.32226562 98.31103516 C62.30860962 99.29141754 62.29495361 100.27179993 62.28088379 101.28189087 C61.98249099 104.1694345 61.20158709 106.37030262 60 109 C54.4560821 106.85443178 49.92938574 104.10386283 45.125 100.625 C44.39394043 100.10188232 43.66288086 99.57876465 42.90966797 99.03979492 C30.9606438 90.43491419 19.29028351 81.45322043 8 72 C7.30132812 71.42507812 6.60265625 70.85015625 5.8828125 70.2578125 C5.26148438 69.73960937 4.64015625 69.22140625 4 68.6875 C3.484375 68.25824219 2.96875 67.82898438 2.4375 67.38671875 C-0.17440491 64.86708222 -1.85501643 63.02900793 -2.3742218 59.34399414 C-2.37359238 58.33457764 -2.37296295 57.32516113 -2.37231445 56.28515625 C-2.37854324 55.13716553 -2.38477203 53.9891748 -2.39118958 52.80639648 C-2.38197983 51.57091064 -2.37277008 50.3354248 -2.36328125 49.0625 C-2.36377975 47.79027588 -2.36427826 46.51805176 -2.36479187 45.20727539 C-2.36245107 42.51710735 -2.35430099 39.82772651 -2.33618164 37.13769531 C-2.31349462 33.69435522 -2.31295168 30.25145396 -2.31969929 26.80805969 C-2.32384935 23.5178402 -2.31186335 20.22769824 -2.30078125 16.9375 C-2.30169266 15.70201416 -2.30260406 14.46652832 -2.30354309 13.19360352 C-2.29401108 12.04561279 -2.28447906 10.89762207 -2.2746582 9.71484375 C-2.27005081 8.70542725 -2.26544342 7.69601074 -2.26069641 6.65600586 C-1.99599768 3.95922387 -1.38018179 2.30699558 0 0 Z " fill="#0088AA" transform="translate(188,129)"/>
<path d="M0 0 C1.2660955 2.53219099 1.14072693 4.31428422 1.16113281 7.14892578 C1.17074036 8.22409454 1.1803479 9.29926331 1.19024658 10.40701294 C1.19449646 11.57465179 1.19874634 12.74229065 1.203125 13.9453125 C1.20882507 15.14429169 1.21452515 16.34327087 1.22039795 17.57858276 C1.22986062 20.12236648 1.23638694 22.66616253 1.24023438 25.20996094 C1.24990799 29.08811137 1.28090713 32.96572477 1.3125 36.84375 C1.31903314 39.31510102 1.32428239 41.78645583 1.328125 44.2578125 C1.3404718 45.41330597 1.3528186 46.56879944 1.36553955 47.75930786 C1.3458479 54.93810441 0.89030343 60.98656236 -3.4375 66.99609375 C-3.953125 67.47175781 -4.46875 67.94742188 -5 68.4375 C-5.62003906 69.01113281 -6.24007812 69.58476562 -6.87890625 70.17578125 C-10.63931818 73.40987402 -14.4618336 76.5565247 -18.33251953 79.65771484 C-20.16575427 81.13342855 -21.98781332 82.62223057 -23.80859375 84.11328125 C-31.16926128 90.13548335 -38.57421507 96.08114266 -46.15234375 101.828125 C-47.93521539 103.1879009 -49.70143108 104.57012318 -51.44140625 105.984375 C-52.14136719 106.54640625 -52.84132813 107.1084375 -53.5625 107.6875 C-54.14128906 108.16574219 -54.72007812 108.64398438 -55.31640625 109.13671875 C-57 110 -57 110 -59.21484375 109.64453125 C-60.09849609 109.32548828 -60.09849609 109.32548828 -61 109 C-62.80814319 103.58721563 -63.28288971 98.89233642 -63.23046875 93.20703125 C-63.23001053 92.37975021 -63.22955231 91.55246918 -63.2290802 90.70011902 C-63.22607306 88.95623331 -63.21823316 87.21234992 -63.20581055 85.46850586 C-63.18767323 82.83762779 -63.18530051 80.20710572 -63.18554688 77.57617188 C-63.12610696 48.12500193 -63.12610696 48.12500193 -54.4375 39.0625 C-49.53057722 34.4171595 -44.27755009 30.21272283 -39 26 C-37.85194811 25.06231888 -36.70485124 24.12346756 -35.55859375 23.18359375 C-28.80650225 17.67497467 -21.92828968 12.40713108 -14.8125 7.375 C-14.09368652 6.86606201 -13.37487305 6.35712402 -12.63427734 5.83276367 C-4.28870944 0 -4.28870944 0 0 0 Z " fill="#0088AA" transform="translate(399,69)"/>
<path d="M0 0 C0.79226104 5.57887095 1.14809084 10.97100184 1.1328125 16.6015625 C1.13376923 17.4004892 1.13472595 18.19941589 1.13571167 19.02255249 C1.13638811 20.70497721 1.13457149 22.38740461 1.13037109 24.06982422 C1.12505803 26.59739303 1.13031237 29.12478068 1.13671875 31.65234375 C1.15619393 61.04039644 1.15619393 61.04039644 -4.45117188 67.73168945 C-4.95197266 68.18761475 -5.45277344 68.64354004 -5.96875 69.11328125 C-6.81651001 69.89457397 -6.81651001 69.89457397 -7.68139648 70.69165039 C-8.28153564 71.22653076 -8.8816748 71.76141113 -9.5 72.3125 C-10.12656494 72.88154053 -10.75312988 73.45058105 -11.39868164 74.03686523 C-16.77831139 78.88640798 -22.33135267 83.49258501 -28 88 C-29.17534045 88.95466978 -30.34976657 89.91046596 -31.5234375 90.8671875 C-37.7899122 95.95915698 -44.12405334 100.95987439 -50.625 105.75 C-51.19259033 106.18046631 -51.76018066 106.61093262 -52.3449707 107.05444336 C-55.67176564 109.46030898 -57.87600274 110.52124872 -62 110 C-63.24193741 107.51612518 -63.14028067 105.82945377 -63.16113281 103.05053711 C-63.17074036 102.01863754 -63.1803479 100.98673798 -63.19024658 99.92356873 C-63.19449646 98.80281448 -63.19874634 97.68206024 -63.203125 96.52734375 C-63.20882507 95.37512833 -63.21452515 94.2229129 -63.22039795 93.03578186 C-63.22986095 90.59035157 -63.23638707 88.14490846 -63.24023438 85.69946289 C-63.24989709 81.97714535 -63.28089117 78.25538996 -63.3125 74.53320312 C-63.31903429 72.15625328 -63.32428309 69.77929948 -63.328125 67.40234375 C-63.3404718 66.29575912 -63.3528186 65.1891745 -63.36553955 64.04905701 C-63.34312251 56.17634993 -62.63148292 49.3782551 -57.6875 43.03125 C-56.800625 42.1959375 -55.91375 41.360625 -55 40.5 C-54.51289551 40.03698486 -54.02579102 39.57396973 -53.52392578 39.09692383 C-49.08595553 34.93695203 -44.39689527 31.09524677 -39.6328125 27.31640625 C-37.77539793 25.8189213 -35.94971108 24.28715933 -34.125 22.75 C-26.82744982 16.61781219 -19.4352148 10.68219557 -11.6875 5.125 C-10.9764209 4.60703857 -10.2653418 4.08907715 -9.53271484 3.55541992 C-8.86578613 3.08595947 -8.19885742 2.61649902 -7.51171875 2.1328125 C-6.92865967 1.71918457 -6.34560059 1.30555664 -5.74487305 0.87939453 C-4 0 -4 0 0 0 Z " fill="#0088AA" transform="translate(324,214)"/>
<path d="M0 0 C8.08394255 3.55693472 14.94151232 8.77474865 22 14 C22.67224609 14.49661133 23.34449219 14.99322266 24.03710938 15.50488281 C32.1503438 21.51142913 40.21044529 27.57605595 48 34 C48.75152344 34.60457031 49.50304687 35.20914063 50.27734375 35.83203125 C55.50686342 40.17262714 58.60233528 44.2212948 60 51 C60.09468232 52.71943015 60.13799319 54.44204278 60.14526367 56.1640625 C60.15164352 57.19192871 60.15802338 58.21979492 60.16459656 59.27880859 C60.16570938 60.38305176 60.1668222 61.48729492 60.16796875 62.625 C60.17296135 64.33357178 60.17296135 64.33357178 60.17805481 66.07666016 C60.18311555 68.48404537 60.1854634 70.8914376 60.18530273 73.29882812 C60.18749157 76.98579406 60.20566301 80.67246191 60.22460938 84.359375 C60.22754296 86.69791564 60.22952799 89.03645771 60.23046875 91.375 C60.23765427 92.47924316 60.24483978 93.58348633 60.25224304 94.72119141 C60.24916641 95.74905762 60.24608978 96.77692383 60.24291992 97.8359375 C60.24434494 98.73876465 60.24576996 99.6415918 60.24723816 100.57177734 C59.98500152 103.14730598 59.30188718 104.78275144 58 107 C45.30904143 105.24873869 32.04391151 91.50897808 22 84 C21.34193359 83.51144531 20.68386719 83.02289063 20.00585938 82.51953125 C-1.47538211 66.55157965 -1.47538211 66.55157965 -3.58984375 53.3046875 C-4.257003 46.53201023 -4.14882012 39.71521476 -4.13037109 32.91674805 C-4.12502027 30.57138582 -4.13033683 28.22621572 -4.13671875 25.88085938 C-4.15216046 4.31136212 -4.15216046 4.31136212 -1.45751953 1.24438477 C-0.97653809 0.83373779 -0.49555664 0.42309082 0 0 Z " fill="#0088AA" transform="translate(116,162)"/>
<path d="M0 0 C6.04957301 0.35194057 9.58418552 3.16484316 14.25 6.6875 C15.03141357 7.2654834 15.81282715 7.8434668 16.61791992 8.43896484 C19.09038669 10.27754821 21.54732497 12.13511202 24 14 C24.78648926 14.5966748 25.57297852 15.19334961 26.38330078 15.80810547 C59.19256987 40.79683911 59.19256987 40.79683911 60.3105011 48.00090027 C60.93277922 54.30133356 61.16046705 60.53404927 61.16796875 66.86328125 C61.17296135 68.35579659 61.17296135 68.35579659 61.17805481 69.87846375 C61.18308074 71.96332339 61.18546449 74.04819095 61.18530273 76.13305664 C61.18750605 79.32125883 61.20575332 82.50912369 61.22460938 85.69726562 C61.22754086 87.73176966 61.22952729 89.76627532 61.23046875 91.80078125 C61.23765427 92.74979813 61.24483978 93.698815 61.25224304 94.67658997 C61.23651233 99.21844062 61.17817418 102.88375258 59 107 C53.8762025 106.53832844 51.26554189 105.04776659 47.3125 101.8125 C46.17371521 100.89874353 45.03296607 99.98743164 43.890625 99.078125 C43.27251953 98.58376953 42.65441406 98.08941406 42.01757812 97.58007812 C38.27033762 94.64540478 34.4074527 91.86705373 30.5625 89.0625 C1.00638587 67.34996543 1.00638587 67.34996543 -2 56 C-3.16856044 48.08602514 -3.14882255 40.23849475 -3.125 32.25 C-3.12886719 30.96867187 -3.13273437 29.68734375 -3.13671875 28.3671875 C-3.11332733 5.30325032 -3.11332733 5.30325032 0 0 Z " fill="#0088AA" transform="translate(115,78)"/>
<path d="M0 0 C2.4390064 4.8083269 2.48819887 9.53195129 2.6875 14.8125 C2.72584961 15.76866211 2.76419922 16.72482422 2.80371094 17.70996094 C3.04450244 25.06483022 2.99699485 32.39600172 2.75 39.75 C2.72381592 40.72428955 2.69763184 41.6985791 2.6706543 42.70239258 C2.16095373 54.41545225 -0.82556556 63.16885175 -9.41845703 71.35058594 C-18.07874038 79.27897603 -27.47265244 86.37111856 -36.86425781 93.40087891 C-38.29580014 94.47273558 -39.72481738 95.54797247 -41.15136719 96.62646484 C-43.19981066 98.17481662 -45.25483854 99.71392766 -47.3125 101.25 C-48.23663696 101.94911499 -48.23663696 101.94911499 -49.17944336 102.66235352 C-54.86049331 106.86139043 -54.86049331 106.86139043 -58 107 C-61 105 -61 105 -62 102 C-62.09611773 100.52887118 -62.1380902 99.05383784 -62.14526367 97.57958984 C-62.15164352 96.68791107 -62.15802338 95.7962323 -62.16459656 94.87753296 C-62.16570938 93.91505646 -62.1668222 92.95257996 -62.16796875 91.9609375 C-62.17129715 90.96550934 -62.17462555 89.97008118 -62.17805481 88.94448853 C-62.1831209 86.83457908 -62.18546323 84.72466161 -62.18530273 82.61474609 C-62.18747735 79.40839126 -62.20560363 76.20238716 -62.22460938 72.99609375 C-62.22754584 70.9427095 -62.22952894 68.88932363 -62.23046875 66.8359375 C-62.24124702 65.41044083 -62.24124702 65.41044083 -62.25224304 63.95614624 C-62.21294525 52.3251564 -59.90569394 44.04326418 -51.65234375 35.59765625 C-12.8549618 -0.57133164 -12.8549618 -0.57133164 0 0 Z " fill="#0088AA" transform="translate(397,156)"/>
<path d="M0 0 C4.58095325 9.1619065 2.32635081 25.13247582 2.4050293 35.19458008 C2.42677139 37.28231177 2.46106088 39.36994854 2.50756836 41.45727539 C2.57462531 44.50967935 2.60201198 47.56024474 2.62109375 50.61328125 C2.64892441 51.53740311 2.67675507 52.46152496 2.70542908 53.41365051 C2.68381564 60.256324 0.71140149 64.08800692 -4 69 C-6.57233807 71.46032493 -9.25585561 73.73348994 -12 76 C-13.49597499 77.28312486 -14.99191793 78.56628729 -16.48730469 79.85009766 C-23.21212162 85.59847277 -30.09151037 91.13085875 -37.09960938 96.52929688 C-39.16453338 98.12733159 -41.21436583 99.74384685 -43.265625 101.359375 C-44.69723662 102.46962744 -46.12951522 103.57902044 -47.5625 104.6875 C-48.56277222 105.48208618 -48.56277222 105.48208618 -49.58325195 106.29272461 C-54.3326613 109.9252651 -54.3326613 109.9252651 -57.96484375 110.33203125 C-58.63644531 110.22246094 -59.30804688 110.11289063 -60 110 C-64.24328133 101.51343733 -62.16901207 88.36129978 -62 79 C-61.98211426 77.93507324 -61.96422852 76.87014648 -61.94580078 75.77294922 C-61.87825154 72.30624326 -61.78636697 68.84094491 -61.6875 65.375 C-61.66510254 64.272771 -61.64270508 63.17054199 -61.61962891 62.03491211 C-61.35902709 54.30942422 -60.85036766 47.64224231 -55.25 41.91015625 C-54.18066098 40.94519956 -53.09661962 39.99633765 -52 39.0625 C-51.42040527 38.54945313 -50.84081055 38.03640625 -50.24365234 37.5078125 C-48.5114235 35.98576645 -46.76099161 34.48861537 -45 33 C-43.62714844 31.83791016 -43.62714844 31.83791016 -42.2265625 30.65234375 C-39.50841424 28.40354541 -36.7572541 26.20064265 -34 24 C-32.85852891 23.06744092 -31.71795116 22.13378764 -30.578125 21.19921875 C-23.77588771 15.64985781 -16.84419337 10.33597884 -9.6875 5.25 C-8.95192871 4.7243042 -8.21635742 4.1986084 -7.45849609 3.65698242 C-6.43296631 2.937323 -6.43296631 2.937323 -5.38671875 2.203125 C-4.78045654 1.77676758 -4.17419434 1.35041016 -3.54956055 0.91113281 C-2 0 -2 0 0 0 Z " fill="#0088AA" transform="translate(324,128)"/>
<path d="M0 0 C3.65757734 0.43408695 5.98369933 1.39500946 8.90625 3.59765625 C9.63980713 4.14397705 10.37336426 4.69029785 11.12915039 5.25317383 C11.91153076 5.85025146 12.69391113 6.4473291 13.5 7.0625 C14.73447876 7.99002075 14.73447876 7.99002075 15.99389648 8.9362793 C17.75404408 10.26139746 19.51103188 11.59072126 21.26513672 12.92382812 C24.02374362 15.01802498 26.793953 17.09605464 29.56640625 19.171875 C58.16395271 40.66105436 58.16395271 40.66105436 60 50 C61.16267369 64.29472656 61.21108131 78.80070559 60.6875 93.125 C60.65285645 94.17840576 60.61821289 95.23181152 60.58251953 96.31713867 C60.51653564 97.77277222 60.51653564 97.77277222 60.44921875 99.2578125 C60.41143311 100.1048877 60.37364746 100.95196289 60.3347168 101.82470703 C60 104 60 104 58 107 C52.83936918 106.53355837 49.55591106 103.89918532 45.5 100.9375 C44.77095459 100.41381836 44.04190918 99.89013672 43.29077148 99.35058594 C-0.07683351 67.97769483 -0.07683351 67.97769483 -2.53637695 56.49609375 C-3.15387504 51.83965741 -3.16250898 47.25484179 -3.16796875 42.5625 C-3.17129715 41.56420166 -3.17462555 40.56590332 -3.17805481 39.53735352 C-3.18310319 37.43278462 -3.18546378 35.32820776 -3.18530273 33.22363281 C-3.18749255 30.01093362 -3.20567969 26.79857618 -3.22460938 23.5859375 C-3.22754309 21.5364595 -3.22952803 19.48697988 -3.23046875 17.4375 C-3.23765427 16.48109619 -3.24483978 15.52469238 -3.25224304 14.53930664 C-3.21357506 3.21357506 -3.21357506 3.21357506 0 0 Z " fill="#0088AA" transform="translate(188,216)"/>
<path d="M0 0 C5.28 0 10.56 0 16 0 C21.05485267 10.55572175 25.03656486 21.48058391 29.125 32.4375 C30.63265378 36.46588362 32.14333763 40.49311972 33.65625 44.51953125 C34.02746979 45.50773865 34.39868958 46.49594604 34.78115845 47.51409912 C36.99576988 53.39067177 39.25836967 59.24460923 41.59375 65.07421875 C41.85872284 65.73721481 42.12369568 66.40021088 42.396698 67.08329773 C43.59776291 70.08253615 44.81060865 73.07627184 46.03955078 76.06420898 C46.65805908 77.59863647 46.65805908 77.59863647 47.2890625 79.1640625 C47.82587646 80.47044678 47.82587646 80.47044678 48.37353516 81.80322266 C49 84 49 84 48 87 C46.25034642 87.05429959 44.50020213 87.09292823 42.75 87.125 C41.77546875 87.14820313 40.8009375 87.17140625 39.796875 87.1953125 C36.85420546 86.98981882 35.45933988 86.57614298 33 85 C31.93505859 83.13647461 31.93505859 83.13647461 31.1484375 80.90234375 C30.85453125 80.10119141 30.560625 79.30003906 30.2578125 78.47460938 C29.96648437 77.63736328 29.67515625 76.80011719 29.375 75.9375 C28.78485813 74.27772599 28.18879734 72.62004078 27.5859375 70.96484375 C27.3286084 70.2287085 27.0712793 69.49257324 26.80615234 68.73413086 C26.1279742 66.80459202 26.1279742 66.80459202 24 66 C21.52167341 65.84373424 19.06688669 65.74186802 16.5859375 65.68359375 C15.85629791 65.66281265 15.12665833 65.64203156 14.37490845 65.62062073 C12.04170237 65.55518083 9.70838279 65.49626632 7.375 65.4375 C5.79425905 65.39430947 4.21352961 65.35069501 2.6328125 65.30664062 C-1.24467504 65.19950519 -5.12227685 65.09822218 -9 65 C-9.18828369 65.65806641 -9.37656738 66.31613281 -9.57055664 66.99414062 C-10.92853528 71.64616674 -12.28047295 76.14351258 -14.4375 80.5 C-14.82808594 81.3146875 -15.21867187 82.129375 -15.62109375 82.96875 C-17.25515601 85.37586721 -18.24783162 86.09075787 -21 87 C-23.796875 87.1953125 -23.796875 87.1953125 -26.75 87.125 C-27.73484375 87.10695313 -28.7196875 87.08890625 -29.734375 87.0703125 C-30.48203125 87.04710937 -31.2296875 87.02390625 -32 87 C-30.71959737 80.60037937 -28.94464476 74.751134 -26.54296875 68.69140625 C-26.20324036 67.81848434 -25.86351196 66.94556244 -25.51348877 66.04618835 C-24.41067675 63.21596794 -23.29908078 60.38928643 -22.1875 57.5625 C-21.42317301 55.60477957 -20.65958932 53.64676878 -19.89672852 51.68847656 C-18.73587299 48.70874684 -17.57457659 45.72919874 -16.41087341 42.75057983 C-12.7067975 33.26797772 -9.06467788 23.76222818 -5.4375 14.25 C-4.87856515 12.78586355 -4.31956659 11.32175142 -3.76049805 9.85766602 C-2.50595953 6.572172 -1.25298466 3.28608848 0 0 Z M8 16 C3.25410941 27.87876756 -1.07160653 39.82629716 -5 52 C-3.1923213 54.23131867 -3.1923213 54.23131867 -0.66162109 54.22705078 C0.76802979 54.21134033 0.76802979 54.21134033 2.2265625 54.1953125 C3.2578125 54.18886719 4.2890625 54.18242187 5.3515625 54.17578125 C6.43179688 54.15902344 7.51203125 54.14226562 8.625 54.125 C10.25695312 54.11146484 10.25695312 54.11146484 11.921875 54.09765625 C14.61480152 54.07403409 17.30729255 54.04109556 20 54 C21.33125608 49.54068138 20.57262458 46.87725166 18.98046875 42.5625 C18.53509766 41.33789062 18.08972656 40.11328125 17.63085938 38.8515625 C17.14995597 37.56762726 16.66883417 36.28377381 16.1875 35 C15.71697936 33.71655573 15.24756696 32.4327046 14.77929688 31.1484375 C12.9170491 26.07200883 11.02848583 21.01258276 9 16 C8.67 16 8.34 16 8 16 Z " fill="#0088AA" transform="translate(73,356)"/>
<path d="M0 0 C5.61 0 11.22 0 17 0 C17.74475822 1.97193827 18.48951535 3.94387696 19.23426819 5.91581726 C19.9082116 7.70011796 20.58223582 9.48438814 21.2563324 11.26863098 C23.15084315 16.28333287 25.04415492 21.29848196 26.93530273 26.31445312 C30.67813756 36.23727668 34.43569041 46.15368971 38.24609375 56.05078125 C39.21165566 58.56794586 40.17651319 61.08537908 41.14105225 63.60293579 C41.7530099 65.19488909 42.36793868 66.7857036 42.98590088 68.37533569 C43.8430605 70.58078881 44.69011913 72.78987945 45.53515625 75 C45.78744492 75.64072952 46.03973358 76.28145905 46.29966736 76.94160461 C47.61718398 80.42008448 48.27799591 83.27811503 48 87 C46.25138208 87.10853491 44.50080759 87.18583428 42.75 87.25 C41.77546875 87.29640625 40.8009375 87.3428125 39.796875 87.390625 C37 87 37 87 34.84375 85.45703125 C32.50602067 82.34170975 31.11562194 79.05012742 29.75 75.4375 C29.481875 74.76525391 29.21375 74.09300781 28.9375 73.40039062 C27.79259277 70.45926415 27 68.18244484 27 65 C15.12 65.33 3.24 65.66 -9 66 C-11.13746917 71.78361454 -11.13746917 71.78361454 -13.24707031 77.57739258 C-14.48982825 80.85551348 -15.50953817 83.46933638 -17.90625 86.0625 C-20.50682155 87.22693502 -22.41073211 87.29957636 -25.25 87.1875 C-26.58804687 87.14689453 -26.58804687 87.14689453 -27.953125 87.10546875 C-28.62859375 87.07066406 -29.3040625 87.03585937 -30 87 C-31.20494107 83.53523884 -30.79837226 81.61863278 -29.53540039 78.21508789 C-29.185858 77.2578331 -28.83631561 76.30057831 -28.47618103 75.3143158 C-28.08314285 74.27344315 -27.69010468 73.2325705 -27.28515625 72.16015625 C-26.88015396 71.06284683 -26.47515167 69.96553741 -26.05787659 68.8349762 C-24.71804776 65.21840219 -23.36070437 61.60876794 -22 58 C-21.53889832 56.77110046 -21.07779663 55.54220093 -20.60272217 54.27606201 C-17.48744357 45.97365475 -14.34082266 37.68334341 -11.18365479 29.39678955 C-9.91442182 26.06397586 -8.64777208 22.73018059 -7.38085938 19.39648438 C-4.92300029 12.93006443 -2.46220395 6.46476679 0 0 Z M8 15 C6.25686992 19.74495471 4.53010578 24.49543016 2.81811523 29.25170898 C2.2336915 30.8682312 1.64486029 32.48316714 1.05151367 34.09643555 C0.1984198 36.41830965 -0.63855723 38.74546423 -1.47265625 41.07421875 C-1.87412621 42.15107185 -1.87412621 42.15107185 -2.28370667 43.24967957 C-3.82511041 47.61319536 -3.9485097 49.25745151 -3 54 C4.92 54 12.84 54 21 54 C22.37656211 49.87031367 20.92314279 47.03025672 19.54296875 43.0859375 C19.27994461 42.31569244 19.01692047 41.54544739 18.7459259 40.75186157 C18.1878031 39.12472424 17.62515764 37.49913226 17.05834961 35.875 C16.18983665 33.38170796 15.33907951 30.88285944 14.49023438 28.3828125 C13.9463636 26.80432495 13.40147609 25.22618727 12.85546875 23.6484375 C12.60016891 22.89742767 12.34486908 22.14641785 12.08183289 21.37265015 C10.95761059 17.4619159 10.95761059 17.4619159 8 15 Z " fill="#0088AA" transform="translate(397,356)"/>
<path d="M0 0 C6.63530342 5.45389574 11.02741254 12.46169395 11.87890625 21.14453125 C11.91011427 23.57182163 11.89845316 25.90721157 11.6015625 28.31640625 C10.6015625 29.31640625 10.6015625 29.31640625 6.90795898 29.42993164 C5.26284958 29.42977249 3.61773519 29.42407613 1.97265625 29.4140625 C0.67631004 29.41194008 0.67631004 29.41194008 -0.64622498 29.40977478 C-3.41783042 29.40415864 -6.1893563 29.39160344 -8.9609375 29.37890625 C-10.8352853 29.37389333 -12.70963435 29.36933006 -14.58398438 29.36523438 C-19.18883294 29.35418397 -23.79362171 29.33690855 -28.3984375 29.31640625 C-28.14123076 30.90201018 -27.86704951 32.48486549 -27.5859375 34.06640625 C-27.43511719 34.948125 -27.28429687 35.82984375 -27.12890625 36.73828125 C-26.34176982 39.51640981 -25.17479448 41.07770979 -23.3984375 43.31640625 C-23.3984375 43.97640625 -23.3984375 44.63640625 -23.3984375 45.31640625 C-17.21091347 48.13918181 -10.23389469 48.67243327 -3.7578125 46.3828125 C-2.26062547 45.66644321 -0.78253077 44.90745871 0.6640625 44.09375 C3.08987661 43.1204899 4.19622354 43.37540544 6.6015625 44.31640625 C8.4765625 46.06640625 8.4765625 46.06640625 9.6015625 48.31640625 C8.78803183 51.52985239 8.11443729 52.96257626 5.359375 54.86328125 C4.49054688 55.2603125 3.62171875 55.65734375 2.7265625 56.06640625 C1.86289063 56.47375 0.99921875 56.88109375 0.109375 57.30078125 C-7.40583377 60.34432374 -17.02948747 60.76837608 -24.7734375 58.25390625 C-33.25270446 54.33201832 -38.06371502 47.86073809 -41.3984375 39.31640625 C-43.90892634 31.94586852 -43.78824789 20.40943777 -40.7734375 13.19140625 C-37.17920079 6.64837675 -31.9808633 0.23295336 -24.703125 -2.265625 C-17.01418036 -3.66006072 -6.77932013 -4.28560545 0 0 Z M-23.015625 9.83203125 C-25.97382416 13.08746574 -28.26345996 15.72717 -28.3984375 20.31640625 C-27.32814621 21.61186073 -27.32814621 21.61186073 -24.80639648 21.42993164 C-23.68048096 21.42469482 -22.55456543 21.41945801 -21.39453125 21.4140625 C-19.57211914 21.40922852 -19.57211914 21.40922852 -17.71289062 21.40429688 C-16.43349609 21.39591797 -15.15410156 21.38753906 -13.8359375 21.37890625 C-11.91104492 21.37213867 -11.91104492 21.37213867 -9.94726562 21.36523438 C-6.76427728 21.3534017 -3.58137988 21.33691693 -0.3984375 21.31640625 C-0.83929688 19.42535156 -0.83929688 19.42535156 -1.2890625 17.49609375 C-1.45438477 16.78694824 -1.61970703 16.07780273 -1.79003906 15.34716797 C-2.70683929 12.28699771 -4.08939311 10.4971704 -6.3984375 8.31640625 C-12.34960662 5.71276976 -18.02490126 5.15473461 -23.015625 9.83203125 Z " fill="#0088AA" transform="translate(241.3984375,383.68359375)"/>
<path d="M0 0 C14.85 0 29.7 0 45 0 C45 11.71638372 35.88929139 21.00930287 29.01953125 30.0078125 C26.19539887 33.71634186 23.47271212 37.48496276 20.8125 41.3125 C20.09707031 42.33988281 19.38164062 43.36726563 18.64453125 44.42578125 C16.87725314 46.96116071 16.87725314 46.96116071 16 50 C25.24 50 34.48 50 44 50 C44 53.63 44 57.26 44 61 C38.09180929 61.04945048 32.18373916 61.08574364 26.27539062 61.10986328 C24.26560365 61.1199187 22.2558313 61.13356485 20.24609375 61.15087891 C17.35673412 61.17514724 14.46756798 61.18648771 11.578125 61.1953125 C10.68007141 61.20563507 9.78201782 61.21595764 8.85675049 61.22659302 C8.01618103 61.22674408 7.17561157 61.22689514 6.30957031 61.22705078 C5.20370575 61.23371262 5.20370575 61.23371262 4.07550049 61.24050903 C1.69480274 60.96463374 0.06983569 60.17901432 -2 59 C-0.73859709 48.52420264 6.55402177 40.04648953 12.71557617 31.8125 C17.7568852 25.0594907 22.38923788 18.0511655 27 11 C23.82946805 10.08341617 20.87176138 9.81167961 17.578125 9.68359375 C16.04091797 9.62075195 16.04091797 9.62075195 14.47265625 9.55664062 C13.40917969 9.51732422 12.34570312 9.47800781 11.25 9.4375 C10.17105469 9.39431641 9.09210938 9.35113281 7.98046875 9.30664062 C5.32043572 9.20071011 2.66031188 9.09863579 0 9 C0 6.03 0 3.06 0 0 Z " fill="#0088AA" transform="translate(316,382)"/>
<path d="M0 0 C14.85 0 29.7 0 45 0 C45 10.71193745 37.5005925 18.87186856 31.28466797 27.18969727 C27.82281773 31.8303415 24.52250423 36.5568074 21.3125 41.375 C20.87832764 42.02380127 20.44415527 42.67260254 19.99682617 43.34106445 C17.91857387 45.96466651 17.91857387 45.96466651 17 49 C30.365 49.495 30.365 49.495 44 50 C44 53.63 44 57.26 44 61 C29.15 61 14.3 61 -1 61 C-1 46.30324635 9.88767791 35.51978831 18.41162109 24.13623047 C23.62584199 17.33171798 23.62584199 17.33171798 28 10 C14.14 9.505 14.14 9.505 0 9 C0 6.03 0 3.06 0 0 Z " fill="#0088AA" transform="translate(262,382)"/>
<path d="M0 0 C0 6.27 0 12.54 0 19 C5.28 19 10.56 19 16 19 C16 21.97 16 24.94 16 28 C10.72 28.33 5.44 28.66 0 29 C0.09691004 34.07247575 0.19962164 39.14412917 0.31738281 44.21606445 C0.35567345 45.94157708 0.39052621 47.66716956 0.421875 49.39282227 C0.46752404 51.87284895 0.52551781 54.35232591 0.5859375 56.83203125 C0.60326431 57.98998955 0.60326431 57.98998955 0.62094116 59.17134094 C0.72521273 62.95246674 0.8534589 64.78018835 3 68 C5.30960688 68.17446481 5.30960688 68.17446481 7.875 67.875 C12.68460352 67.71537391 12.68460352 67.71537391 15.5625 70.3125 C17 73 17 73 18 76 C11.38845077 80.34473235 4.75297322 80.62112518 -3 80 C-6.41752017 79.17445339 -9.13908244 78.09571326 -11.375 75.25 C-13.01633176 69.34120567 -13.18482393 63.31029117 -13.31640625 57.22265625 C-13.33718735 56.41130722 -13.35796844 55.59995819 -13.37937927 54.76402283 C-13.44425643 52.19692661 -13.50346922 49.62973663 -13.5625 47.0625 C-13.60574418 45.31183964 -13.64936026 43.56118842 -13.69335938 41.81054688 C-13.7998735 37.54045829 -13.90131114 33.27027632 -14 29 C-15.299375 28.855625 -16.59875 28.71125 -17.9375 28.5625 C-21.875 28.125 -21.875 28.125 -23 27 C-23.04080783 25.00041636 -23.04254356 22.99954746 -23 21 C-21.70990357 20.49596232 -20.41786211 19.99690074 -19.125 19.5 C-18.40570313 19.2215625 -17.68640625 18.943125 -16.9453125 18.65625 C-15 18 -15 18 -13 18 C-12.89042969 16.95199219 -12.78085938 15.90398437 -12.66796875 14.82421875 C-12.50849426 13.44523349 -12.34830034 12.06633129 -12.1875 10.6875 C-12.08211914 9.65206055 -12.08211914 9.65206055 -11.97460938 8.59570312 C-11.64280833 5.84839047 -11.25342409 3.46722186 -9.92578125 1.01953125 C-8 0 -8 0 0 0 Z " fill="#0088AA" transform="translate(176,363)"/>
<path d="M0 0 C4.62 0 9.24 0 14 0 C14 29.7 14 59.4 14 90 C9.38 90 4.76 90 0 90 C0 60.3 0 30.6 0 0 Z " fill="#0087AA" transform="translate(129,353)"/>
<path d="M0 0 C4.62 0 9.24 0 14 0 C14 21.45 14 42.9 14 65 C9.38 65 4.76 65 0 65 C0 43.55 0 22.1 0 0 Z " fill="#0087A9" transform="translate(457,378)"/>
<path d="M0 0 C4.62 0 9.24 0 14 0 C14 3.96 14 7.92 14 12 C9.38 12 4.76 12 0 12 C0 8.04 0 4.08 0 0 Z " fill="#0087AA" transform="translate(457,356)"/>
</svg>
