<svg width="394" height="395" viewBox="0 0 394 395" fill="none" xmlns="http://www.w3.org/2000/svg">
<path d="M216.948 316.804C217.302 280.64 208.134 251.232 196.471 251.118C184.808 251.004 175.067 280.228 174.714 316.391C174.36 352.554 183.529 381.963 195.191 382.077C206.854 382.191 216.595 352.967 216.948 316.804Z" fill="#D9E535"/>
<path d="M149.3 308.586C169.15 278.355 177.338 248.658 167.589 242.257C157.839 235.855 133.844 255.172 113.994 285.403C94.1437 315.634 85.9556 345.329 95.7047 351.732C105.455 358.134 129.449 338.816 149.3 308.586Z" fill="#D9E535"/>
<path d="M96.7575 265.215C129.802 250.517 152.746 229.963 148.005 219.306C143.265 208.649 112.636 211.926 79.5918 226.625C46.5481 241.322 23.6037 261.876 28.3439 272.533C33.084 283.19 63.7139 279.914 96.7575 265.215Z" fill="#D9E535"/>
<path d="M144.042 189.398C145.816 177.87 118.278 164.065 82.5343 158.563C46.7897 153.062 16.3749 157.947 14.6007 169.475C12.8264 181.002 40.3645 194.807 76.1088 200.308C111.853 205.81 142.268 200.925 144.042 189.398Z" fill="#D9E535"/>
<path d="M156.883 161.962C164.607 153.223 148.901 126.723 121.802 102.774C94.7035 78.8243 66.4743 66.494 58.7505 75.2334C51.0267 83.9729 66.7331 110.473 93.8319 134.422C120.93 158.372 149.16 170.702 156.883 161.962Z" fill="#D9E535"/>
<path d="M182.427 145.893C193.65 142.717 194.765 111.932 184.918 77.1339C175.071 42.3351 157.99 16.6996 146.768 19.8753C135.545 23.051 134.43 53.8353 144.277 88.6344C154.124 123.433 171.204 149.069 182.427 145.893Z" fill="#D9E535"/>
<path d="M251.829 89.7215C262.36 55.1236 261.853 24.3232 250.695 20.9268C239.537 17.5304 221.954 42.8241 211.422 77.4219C200.892 112.02 201.399 142.82 212.557 146.216C223.715 149.613 241.298 124.319 251.829 89.7215Z" fill="#D9E535"/>
<path d="M301.412 136.471C328.974 113.056 345.196 86.8683 337.644 77.9799C330.092 69.0912 301.627 80.8676 274.066 104.282C246.504 127.698 230.283 153.885 237.835 162.774C245.386 171.663 273.851 159.887 301.412 136.471Z" fill="#D9E535"/>
<path d="M317.824 202.615C353.67 197.819 381.475 184.56 379.928 172.999C378.382 161.44 348.069 155.956 312.223 160.751C276.378 165.547 248.572 178.805 250.119 190.366C251.666 201.926 281.978 207.411 317.824 202.615Z" fill="#D9E535"/>
<path d="M364.062 275.824C369.012 265.263 346.477 244.26 313.729 228.913C280.983 213.566 250.423 209.687 245.474 220.248C240.524 230.809 263.059 251.812 295.806 267.159C328.553 282.505 359.113 286.385 364.062 275.824Z" fill="#D9E535"/>
<path d="M295.176 353.041C305.049 346.833 297.448 316.981 278.198 286.365C258.948 255.748 235.338 235.963 225.464 242.17C215.591 248.378 223.192 278.231 242.442 308.847C261.692 339.463 285.302 359.25 295.176 353.041Z" fill="#D9E535"/>
</svg>
