<svg fill="#000000" viewBox="0 0 24 24" id="tablet-handphone" data-name="Line Color" xmlns="http://www.w3.org/2000/svg" class="icon line-color"><g id="SVGRepo_bgCarrier" stroke-width="0"></g><g id="SVGRepo_tracerCarrier" stroke-linecap="round" stroke-linejoin="round"></g><g id="SVGRepo_iconCarrier"><path id="primary" d="M11,21h9a1,1,0,0,0,1-1V4a1,1,0,0,0-1-1H6A1,1,0,0,0,5,4V9h6a1,1,0,0,1,1,1V20A1,1,0,0,1,11,21Z" style="fill: none; stroke: #D9E535; stroke-linecap: round; stroke-linejoin: round; stroke-width: 2;"></path><path id="secondary" d="M4,9h7a1,1,0,0,1,1,1V20a1,1,0,0,1-1,1H4a1,1,0,0,1-1-1V10A1,1,0,0,1,4,9Zm2.5,2h2L9,9H6Z" style="fill: none; stroke: #D9E535; stroke-linecap: round; stroke-linejoin: round; stroke-width: 2;"></path></g></svg>